SplineFontDB: 3.2
FontName: hiContr_Lite_SemiBold_Italic
FullName: hiContr Lite SemiBold Italic
FamilyName: hiContr Lite
Weight: Bold
Copyright: Copyright (c) 2022, RandomMaerks (aka Bao Nguyen) (rmforbusiness@gmail.com)
UComments: "2022-1-20: Created with FontForge (http://fontforge.org)"
Version: 1.0
ItalicAngle: 0
UnderlinePosition: -100
UnderlineWidth: 50
Ascent: 800
Descent: 200
InvalidEm: 0
LayerCount: 2
Layer: 0 0 "Back" 1
Layer: 1 0 "Fore" 0
XUID: [1021 301 932173752 22486]
FSType: 0
OS2Version: 0
OS2_WeightWidthSlopeOnly: 0
OS2_UseTypoMetrics: 1
CreationTime: 1642688090
ModificationTime: 1642689175
PfmFamily: 17
TTFWeight: 600
TTFWidth: 5
LineGap: 90
VLineGap: 0
OS2TypoAscent: 0
OS2TypoAOffset: 1
OS2TypoDescent: 0
OS2TypoDOffset: 1
OS2TypoLinegap: 90
OS2WinAscent: 0
OS2WinAOffset: 1
OS2WinDescent: 0
OS2WinDOffset: 1
HheadAscent: 0
HheadAOffset: 1
HheadDescent: 0
HheadDOffset: 1
OS2Vendor: 'PfEd'
MarkAttachClasses: 1
DEI: 91125
Encoding: ISO8859-1
UnicodeInterp: none
NameList: AGL For New Fonts
DisplaySize: -48
AntiAlias: 1
FitToEm: 0
WinInfo: 0 38 14
BeginPrivate: 0
EndPrivate
BeginChars: 256 58

StartChar: n
Encoding: 110 110 0
Width: 419
Flags: HW
LayerCount: 2
Fore
SplineSet
181.474609375 500 m 1
 211.974609375 500 l 1
 245.756835938 402.778320312 l 1
 279.5078125 466.139648438 326.263671875 525.5 392.807617188 525.5 c 0
 475.689453125 525.5 500.021484375 454.45703125 469.352539062 340 c 2
 378.25 0 l 1
 272.75 0 l 1
 370.551757812 365 l 2
 389.413085938 435.392578125 382.8203125 474.5 340.641601562 474.5 c 0
 301.831054688 474.5 266.032226562 421.841796875 246.112304688 347.5 c 2
 153 0 l 1
 47.5 0 l 1
 181.474609375 500 l 1
EndSplineSet
EndChar

StartChar: t
Encoding: 116 116 1
Width: 362
Flags: HW
LayerCount: 2
Fore
SplineSet
373.666992188 650 m 1
 409.166992188 650 l 1
 368.974609375 500 l 1
 468.474609375 500 l 1
 458.29296875 462 l 1
 358.79296875 462 l 1
 235 0 l 1
 129.5 0 l 1
 253.29296875 462 l 1
 151.29296875 462 l 1
 156.115234375 480 l 1
 373.666992188 650 l 1
EndSplineSet
EndChar

StartChar: h
Encoding: 104 104 2
Width: 428
Flags: HW
LayerCount: 2
Fore
SplineSet
235.064453125 700 m 1
 323.064453125 700 l 1
 242.528320312 399.435546875 l 1
 280.084960938 472.963867188 333.578125 525.5 392.807617188 525.5 c 0
 477.166015625 525.5 502.271484375 454.45703125 471.602539062 340 c 2
 380.5 0 l 1
 275 0 l 1
 373.471679688 367.5 l 2
 393.194335938 441.107421875 386.431640625 482 342.651367188 482 c 0
 303.83984375 482 267.208007812 426.231445312 246.112304688 347.5 c 2
 153 0 l 1
 47.5 0 l 1
 235.064453125 700 l 1
EndSplineSet
EndChar

StartChar: u
Encoding: 117 117 3
Width: 428
Flags: HW
LayerCount: 2
Fore
SplineSet
380.5 0 m 1
 350 0 l 1
 317.987304688 105.529296875 l 1
 283.880859375 41.8720703125 237.125976562 -18 171.176757812 -18 c 0
 86.818359375 -18 61.712890625 53.04296875 92.3818359375 167.5 c 2
 181.474609375 500 l 1
 286.974609375 500 l 1
 191.182617188 142.5 l 2
 172.321289062 72.107421875 179.5625 33 223.342773438 33 c 0
 262.153320312 33 298.229492188 86.6953125 318.541992188 162.5 c 2
 408.974609375 500 l 1
 514.474609375 500 l 1
 380.5 0 l 1
EndSplineSet
EndChar

StartChar: m
Encoding: 109 109 4
Width: 658
Flags: HW
LayerCount: 2
Fore
SplineSet
181.474609375 500 m 1
 211.974609375 500 l 1
 245.756835938 402.778320312 l 1
 279.5078125 466.139648438 326.263671875 525.5 392.807617188 525.5 c 0
 453 525.5 483.381835938 475.053710938 489.197265625 421.860351562 c 1
 517.909179688 482.737304688 565.6484375 525.5 622.807617188 525.5 c 0
 707.166015625 525.5 732.271484375 454.45703125 701.602539062 340 c 2
 610.5 0 l 1
 507.5 0 l 1
 605.971679688 367.5 l 2
 624.40234375 436.286132812 616.201171875 474.5 570.641601562 474.5 c 0
 531.831054688 474.5 496.823242188 424.793945312 474.102539062 340 c 2
 383 0 l 1
 277.5 0 l 1
 375.971679688 367.5 l 2
 394.40234375 436.286132812 386.201171875 474.5 340.641601562 474.5 c 0
 301.831054688 474.5 266.032226562 421.841796875 246.112304688 347.5 c 2
 153 0 l 1
 47.5 0 l 1
 181.474609375 500 l 1
EndSplineSet
EndChar

StartChar: r
Encoding: 114 114 5
Width: 408
Flags: HW
LayerCount: 2
Fore
SplineSet
181.474609375 500 m 1
 209.474609375 500 l 1
 246.426757812 405.278320312 l 1
 280.544921875 468.639648438 327.975585938 528 395.977539062 528 c 0
 478.694335938 528 502.684570312 456 471.602539062 340 c 1
 360.744140625 320 l 1
 387.787109375 420.928710938 384.37109375 477 338.811523438 477 c 0
 301.604492188 477 266.702148438 424.341796875 246.782226562 350 c 2
 153 0 l 1
 47.5 0 l 1
 181.474609375 500 l 1
EndSplineSet
EndChar

StartChar: o
Encoding: 111 111 6
Width: 414
Flags: HW
LayerCount: 2
Fore
SplineSet
347.387695312 523 m 0
 428.407226562 523 497.524414062 461 463.762695312 335 c 2
 420.890625 175 l 2
 387.129882812 49 284.786132812 -13 203.766601562 -13 c 0
 122.50390625 -13 53.1298828125 49 86.890625 175 c 2
 129.762695312 335 l 2
 163.524414062 461 266.125 523 347.387695312 523 c 0
337.741210938 487 m 0
 293.783203125 487 265.2734375 447 245.98046875 375 c 2
 181.672851562 135 l 2
 162.380859375 63 169.455078125 23 213.413085938 23 c 0
 257.014648438 23 285.380859375 63 304.672851562 135 c 2
 368.98046875 375 l 2
 388.2734375 447 381.342773438 487 337.741210938 487 c 0
EndSplineSet
EndChar

StartChar: e
Encoding: 101 101 7
Width: 414
Flags: HW
LayerCount: 2
Fore
SplineSet
217.133789062 267.340820312 m 1
 344.341796875 283.045898438 l 1
 371.392578125 384 l 2
 388.048828125 446.161132812 381.775390625 487 337.491210938 487 c 0
 293.711914062 487 265.2734375 447 245.98046875 375 c 2
 217.133789062 267.340820312 l 1
209.633789062 239.350585938 m 1
 181.672851562 135 l 2
 162.380859375 63 169.3828125 23 213.163085938 23 c 0
 256.942382812 23 291.123046875 84.4287109375 320.75 195 c 1
 420.890625 175 l 1
 387.129882812 49 284.658203125 -13 203.516601562 -13 c 0
 122.375 -13 53.1298828125 49 86.890625 175 c 2
 129.762695312 335 l 2
 163.524414062 461 265.99609375 523 347.137695312 523 c 0
 428.278320312 523 497.524414062 461 463.762695312 335 c 2
 446.346679688 270 l 1
 209.633789062 239.350585938 l 1
EndSplineSet
EndChar

StartChar: c
Encoding: 99 99 8
Width: 414
Flags: HW
LayerCount: 2
Fore
SplineSet
463.762695312 335 m 1
 352.904296875 315 l 1
 382.53125 425.571289062 381.270507812 487 337.491210938 487 c 0
 295.491210938 487 267.7734375 447 248.48046875 375 c 2
 184.172851562 135 l 2
 164.880859375 63 171.163085938 23 213.163085938 23 c 0
 256.942382812 23 291.123046875 84.4287109375 320.75 195 c 1
 420.890625 175 l 1
 387.129882812 49 284.658203125 -13 203.516601562 -13 c 0
 122.375 -13 53.1298828125 49 86.890625 175 c 2
 129.762695312 335 l 2
 163.524414062 461 265.99609375 523 347.137695312 523 c 0
 428.278320312 523 497.524414062 461 463.762695312 335 c 1
EndSplineSet
EndChar

StartChar: l
Encoding: 108 108 9
Width: 229
Flags: HW
LayerCount: 2
Fore
SplineSet
155.5 0 m 2
 85.9404296875 0 60.6298828125 49 73.22265625 96 c 2
 221.666992188 650 l 1
 340.564453125 700 l 1
 175.374023438 83.5 l 2
 168.837890625 59.1083984375 177.419921875 50.5 194.53125 50.5 c 2
 205.03125 50.5 l 1
 191.5 0 l 1
 155.5 0 l 2
EndSplineSet
EndChar

StartChar: b
Encoding: 98 98 10
Width: 424
Flags: HW
LayerCount: 2
Fore
SplineSet
383.477539062 528 m 0
 458.184570312 528 508.684570312 456 477.602539062 340 c 2
 434.73046875 180 l 2
 403.6484375 64 314.563476562 -8 239.856445312 -8 c 0
 187.9609375 -8 159.547851562 49.2958984375 169.744140625 123.447265625 c 1
 75.5 0 l 1
 47.5 0 l 1
 235.064453125 700 l 1
 320.564453125 700 l 1
 244.127929688 414.734375 l 1
 280.798828125 479.25390625 335.140625 528 383.477539062 528 c 0
238.744140625 320 m 2
 206.58984375 200 l 2
 179.545898438 99.0712890625 182.962890625 43 228.521484375 43 c 0
 275.860351562 43 306.21875 84.7861328125 326.372070312 160 c 2
 379.961914062 360 l 2
 400.115234375 435.213867188 392.150390625 477 344.811523438 477 c 0
 299.252929688 477 265.787109375 420.928710938 238.744140625 320 c 2
EndSplineSet
EndChar

StartChar: d
Encoding: 100 100 11
Width: 424
Flags: HW
LayerCount: 2
Fore
SplineSet
320.977539062 528 m 0
 247.5625 528 159.684570312 456 128.602539062 340 c 2
 85.73046875 180 l 2
 54.6484375 64 103.94140625 -8 177.356445312 -8 c 0
 230.483398438 -8 290.640625 49.2958984375 320.41015625 123.447265625 c 1
 348.5 0 l 1
 376.5 0 l 1
 564.064453125 700 l 1
 478.564453125 700 l 1
 402.127929688 414.734375 l 1
 399.587890625 479.25390625 370.422851562 528 320.977539062 528 c 0
356.744140625 320 m 2
 324.58984375 200 l 2
 297.545898438 99.0712890625 264.081054688 43 218.521484375 43 c 0
 172.962890625 43 165.71875 84.7861328125 185.872070312 160 c 2
 239.461914062 360 l 2
 259.615234375 435.213867188 289.252929688 477 334.811523438 477 c 0
 380.37109375 477 383.787109375 420.928710938 356.744140625 320 c 2
EndSplineSet
EndChar

StartChar: p
Encoding: 112 112 12
Width: 424
Flags: HW
LayerCount: 2
Fore
SplineSet
236.997070312 -28 m 0
 310.412109375 -28 398.290039062 44 429.372070312 160 c 2
 472.244140625 320 l 2
 503.326171875 436 454.033203125 508 380.618164062 508 c 0
 327.491210938 508 267.333984375 450.704101562 237.564453125 376.552734375 c 1
 209.474609375 500 l 1
 181.474609375 500 l 1
 7.3076171875 -150 l 1
 92.8076171875 -150 l 1
 155.846679688 85.265625 l 1
 158.38671875 20.74609375 187.551757812 -28 236.997070312 -28 c 0
201.23046875 180 m 2
 233.384765625 300 l 2
 260.428710938 400.928710938 293.893554688 457 339.453125 457 c 0
 385.01171875 457 392.255859375 415.213867188 372.102539062 340 c 2
 318.512695312 140 l 2
 298.359375 64.7861328125 268.721679688 23 223.163085938 23 c 0
 177.603515625 23 174.1875 79.0712890625 201.23046875 180 c 2
EndSplineSet
EndChar

StartChar: q
Encoding: 113 113 13
Width: 424
Flags: HW
LayerCount: 2
Fore
SplineSet
171.997070312 -28 m 0
 98.58203125 -28 49.5458984375 44.95703125 81.0419921875 162.5 c 2
 123.9140625 322.5 l 2
 154.58203125 436.95703125 242.203125 508 315.618164062 508 c 0
 368.745117188 508 398.197265625 450.704101562 388.23046875 376.552734375 c 1
 482.474609375 500 l 1
 510.474609375 500 l 1
 336.307617188 -150 l 1
 250.807617188 -150 l 1
 313.846679688 85.265625 l 1
 276.731445312 20.74609375 221.443359375 -28 171.997070312 -28 c 0
319.23046875 180 m 2
 351.384765625 300 l 2
 378.428710938 400.928710938 375.01171875 457 329.453125 457 c 0
 283.893554688 457 254.255859375 415.213867188 234.102539062 340 c 2
 180.512695312 140 l 2
 160.359375 64.7861328125 167.603515625 23 213.163085938 23 c 0
 258.721679688 23 292.1875 79.0712890625 319.23046875 180 c 2
EndSplineSet
EndChar

StartChar: i
Encoding: 105 105 14
Width: 198
Flags: HW
LayerCount: 2
Fore
SplineSet
301.958007812 565.25 m 1
 198.958007812 565.25 l 1
 225.686523438 665 l 1
 328.686523438 665 l 1
 301.958007812 565.25 l 1
150.5 0 m 1
 47.5 0 l 1
 181.474609375 500 l 1
 284.474609375 500 l 1
 150.5 0 l 1
EndSplineSet
EndChar

StartChar: a
Encoding: 97 97 15
Width: 434
Flags: HW
LayerCount: 2
Fore
SplineSet
320.48828125 111.01171875 m 1
 295.083984375 52.677734375 238.391601562 -7.8203125 165.638671875 -7.8203125 c 0
 97.97265625 -7.8203125 59.822265625 45.98828125 84.208984375 137 c 0
 114.275390625 249.208984375 237.915039062 292.649414062 361.915039062 292.649414062 c 1
 368.439453125 317 l 2
 397.63671875 425.963867188 394.696289062 486.5 347.357421875 486.5 c 0
 300.018554688 486.5 264.63671875 425.963867188 235.439453125 317 c 1
 137.798828125 337 l 1
 173.2265625 469.217773438 274.647460938 522.5 357.00390625 522.5 c 0
 439.359375 522.5 511.168945312 465.271484375 476.798828125 337 c 2
 386.5 0 l 1
 352.5 0 l 1
 320.48828125 111.01171875 l 1
354.482421875 264.909179688 m 1
 257.549804688 264.909179688 203.862304688 199.149414062 191.618164062 153.454101562 c 0
 181.8125 116.861328125 182.412109375 50 230.397460938 50 c 0
 277.736328125 50 310.96484375 102.5 336.286132812 197 c 2
 354.482421875 264.909179688 l 1
EndSplineSet
EndChar

StartChar: f
Encoding: 102 102 17
Width: 362
Flags: HW
LayerCount: 2
Fore
SplineSet
458.513671875 673.400390625 m 0
 401.578125 673.400390625 365.201171875 588.546875 341.474609375 500 c 1
 468.474609375 500 l 1
 458.29296875 462 l 1
 331.29296875 462 l 1
 207.5 0 l 1
 102 0 l 1
 225.79296875 462 l 1
 151.29296875 462 l 1
 161.474609375 500 l 1
 235.974609375 500 l 1
 278.657226562 659.291992188 371.737304688 720 454.423828125 720 c 0
 482.423828125 720 495.159179688 713.916992188 507.208007812 708 c 1
 496.221679688 667 l 1
 496.221679688 667 480.017578125 673.400390625 458.513671875 673.400390625 c 0
EndSplineSet
EndChar

StartChar: g
Encoding: 103 103 18
Width: 424
Flags: HW
LayerCount: 2
Fore
SplineSet
332.092773438 228 m 2
 351.384765625 300 l 2
 379.720703125 405.75 377.021484375 464.5 331.461914062 464.5 c 0
 285.903320312 464.5 256.504882812 423.607421875 236.782226562 350 c 2
 190.6953125 178 l 2
 170.971679688 104.392578125 178.455078125 63.5 224.014648438 63.5 c 0
 269.57421875 63.5 303.756835938 122.25 332.092773438 228 c 2
184.859375 20 m 0
 111.444335938 20 62.1513671875 92 93.2333984375 208 c 2
 123.244140625 320 l 2
 154.326171875 436 242.203125 508 315.618164062 508 c 0
 378.982421875 508 400.876953125 460.704101562 388.23046875 376.552734375 c 1
 492.474609375 500 l 1
 510.474609375 500 l 1
 370.60546875 -22 l 2
 335.235351562 -154 235.765625 -200 153.41015625 -200 c 0
 72.2685546875 -200 -1.2646484375 -154 34.10546875 -22 c 1
 144.963867188 -2 l 1
 114.323242188 -116.352539062 119.276367188 -164 163.056640625 -164 c 0
 208.615234375 -164 235.094726562 -134 254.38671875 -62 c 2
 298.669921875 103.265625 l 1
 270.228515625 47 234.553710938 20 184.859375 20 c 0
EndSplineSet
EndChar

StartChar: j
Encoding: 106 106 19
Width: 198
Flags: HW
LayerCount: 2
Fore
SplineSet
301.958007812 565.25 m 1
 198.958007812 565.25 l 1
 225.686523438 665 l 1
 328.686523438 665 l 1
 301.958007812 565.25 l 1
36.7822265625 -40 m 2
 181.474609375 500 l 1
 284.474609375 500 l 1
 155.859375 20 l 2
 113.176757812 -139.291992188 18.8916015625 -200 -65.08984375 -200 c 0
 -93.08984375 -200 -105.825195312 -193.916992188 -117.874023438 -188 c 1
 -109.568359375 -157 l 1
 -109.568359375 -157 -93.36328125 -163.400390625 -71.859375 -163.400390625 c 0
 -10.890625 -163.400390625 19.8974609375 -103.014648438 36.7822265625 -40 c 2
EndSplineSet
EndChar

StartChar: k
Encoding: 107 107 20
Width: 412
Flags: HW
LayerCount: 2
Fore
SplineSet
153 0 m 1
 47.5 0 l 1
 235.064453125 700 l 1
 330.564453125 700 l 1
 202.188476562 220.895507812 l 1
 474.224609375 500 l 1
 518.474609375 500 l 1
 325.969726562 290.509765625 l 1
 384.5 0 l 1
 279 0 l 1
 235.642578125 225.387695312 l 1
 204.549804688 192.387695312 l 1
 153 0 l 1
EndSplineSet
EndChar

StartChar: v
Encoding: 118 118 21
Width: 388
Flags: HW
LayerCount: 2
Fore
SplineSet
247.038085938 30 m 1
 464.474609375 500 l 1
 494.474609375 500 l 1
 263 0 l 1
 147.5 0 l 1
 161.474609375 500 l 1
 266.974609375 500 l 1
 247.038085938 30 l 1
EndSplineSet
EndChar

StartChar: w
Encoding: 119 119 22
Width: 648
Flags: HW
LayerCount: 2
Fore
SplineSet
224.538085938 30 m 1
 423.974609375 500 l 1
 531.974609375 500 l 1
 504.538085938 30 l 1
 726.474609375 500 l 1
 754.474609375 500 l 1
 520.5 0 l 1
 420 0 l 1
 436.541992188 457.333007812 l 1
 240.5 0 l 1
 140 0 l 1
 161.474609375 500 l 1
 269.474609375 500 l 1
 224.538085938 30 l 1
EndSplineSet
EndChar

StartChar: y
Encoding: 121 121 23
Width: 388
Flags: HW
LayerCount: 2
Fore
SplineSet
274.615234375 90 m 1
 463.474609375 500 l 1
 494.474609375 500 l 1
 186.377929688 -160 l 1
 83.8779296875 -160 l 1
 191.077148438 60 l 1
 171.077148438 60 l 1
 161.474609375 500 l 1
 266.974609375 500 l 1
 274.615234375 90 l 1
EndSplineSet
EndChar

StartChar: x
Encoding: 120 120 24
Width: 406
Flags: HW
LayerCount: 2
Fore
SplineSet
378.5 0 m 1
 273 0 l 1
 237.58984375 200 l 1
 75 0 l 1
 27.5 0 l 1
 229.329101562 232.614257812 l 1
 161.474609375 500 l 1
 266.974609375 500 l 1
 302.688476562 303 l 1
 474.474609375 500 l 1
 512.474609375 500 l 1
 310.94921875 270.385742188 l 1
 378.5 0 l 1
EndSplineSet
EndChar

StartChar: z
Encoding: 122 122 25
Width: 408
Flags: HW
LayerCount: 2
Fore
SplineSet
145.885742188 404.5 m 1
 171.474609375 500 l 1
 504.474609375 500 l 1
 478.349609375 402.5 l 1
 107.0390625 95.5 l 1
 396.088867188 95.5 l 1
 370.5 0 l 1
 37.5 0 l 1
 65.7685546875 105.5 l 1
 434.795898438 404.5 l 1
 145.885742188 404.5 l 1
EndSplineSet
EndChar

StartChar: s
Encoding: 115 115 26
Width: 414
Flags: HW
LayerCount: 2
Fore
SplineSet
245.356445312 382 m 0
 233.541992188 337.907226562 230.623046875 295.904296875 275.9921875 278 c 0
 328.532226562 254 445.99609375 259.362304688 411.869140625 132 c 0
 386.146484375 36 285.068359375 -16 202.712890625 -16 c 0
 120.356445312 -16 49.8251953125 46 83.5869140625 172 c 1
 196.946289062 192 l 1
 167.318359375 81.4287109375 168.579101562 20 212.359375 20 c 0
 257.91796875 20 294.25 86.76953125 306.369140625 132 c 0
 318.584960938 177.588867188 314.850585938 219.752929688 286.842773438 231 c 0
 229.208984375 258.495117188 104.859375 251.388671875 137.176757812 372 c 0
 162.900390625 468 263.977539062 520 346.333984375 520 c 0
 428.689453125 520 501.900390625 468 465.458984375 332 c 1
 352.100585938 312 l 1
 381.727539062 422.571289062 380.466796875 484 336.6875 484 c 0
 291.127929688 484 260.919921875 440.083007812 245.356445312 382 c 0
EndSplineSet
EndChar

StartChar: H
Encoding: 72 72 27
Width: 498
Flags: HW
LayerCount: 2
Fore
SplineSet
153 0 m 1
 47.5 0 l 1
 235.064453125 700 l 1
 340.564453125 700 l 1
 259.912109375 399 l 1
 451.912109375 399 l 1
 532.564453125 700 l 1
 638.064453125 700 l 1
 450.5 0 l 1
 345 0 l 1
 442.265625 363 l 1
 250.265625 363 l 1
 153 0 l 1
EndSplineSet
EndChar

StartChar: N
Encoding: 78 78 28
Width: 498
Flags: HW
LayerCount: 2
Fore
SplineSet
153 0 m 1
 47.5 0 l 1
 235.064453125 700 l 1
 380.564453125 700 l 1
 360.18359375 56.6669921875 l 1
 532.564453125 700 l 1
 638.064453125 700 l 1
 450.5 0 l 1
 315 0 l 1
 331.6328125 666.666992188 l 1
 153 0 l 1
EndSplineSet
EndChar

StartChar: M
Encoding: 77 77 29
Width: 662
Flags: HW
LayerCount: 2
Fore
SplineSet
338.064453125 26.36328125 m 1
 646.564453125 700 l 1
 802.064453125 700 l 1
 614.5 0 l 1
 509 0 l 1
 690.3125 676.666992188 l 1
 372 0 l 1
 290 0 l 1
 334.3125 676.666992188 l 1
 153 0 l 1
 47.5 0 l 1
 235.064453125 700 l 1
 390.564453125 700 l 1
 338.064453125 26.36328125 l 1
EndSplineSet
EndChar

StartChar: U
Encoding: 85 85 30
Width: 484
Flags: HW
LayerCount: 2
Fore
SplineSet
497.41015625 190 m 2
 455.610351562 34 329.780273438 -18 237.176757812 -18 c 0
 144.573242188 -18 46.6103515625 34 88.41015625 190 c 2
 225.064453125 700 l 1
 330.564453125 700 l 1
 330.564453125 700 234.102539062 340 185.872070312 160 c 0
 161.220703125 68 196.879882812 36 251.646484375 36 c 0
 306.412109375 36 364.579101562 88 383.872070312 160 c 0
 528.564453125 700 l 1
 634.064453125 700 l 1
 497.41015625 190 l 2
EndSplineSet
EndChar

StartChar: O
Encoding: 79 79 31
Width: 484
Flags: HW
LayerCount: 2
Fore
SplineSet
434.387695312 718 m 0
 526.991210938 718 624.954101562 666 583.154296875 510 c 2
 497.41015625 190 l 2
 455.610351562 34 329.780273438 -18 237.176757812 -18 c 0
 144.573242188 -18 46.6103515625 34 88.41015625 190 c 2
 174.154296875 510 l 2
 215.954101562 666 341.784179688 718 434.387695312 718 c 0
419.91796875 664 m 0
 365.15234375 664 312.34375 632 287.692382812 540 c 2
 185.872070312 160 l 2
 161.220703125 68 196.879882812 36 251.646484375 36 c 0
 306.412109375 36 364.579101562 88 383.872070312 160 c 2
 485.692382812 540 l 2
 510.34375 632 474.684570312 664 419.91796875 664 c 0
EndSplineSet
EndChar

StartChar: C
Encoding: 67 67 32
Width: 484
Flags: HW
LayerCount: 2
Fore
SplineSet
497.41015625 190 m 1
 455.610351562 34 329.780273438 -18 237.176757812 -18 c 0
 144.573242188 -18 46.6103515625 34 88.41015625 190 c 2
 174.154296875 510 l 2
 215.954101562 666 341.784179688 718 434.387695312 718 c 0
 526.991210938 718 624.954101562 666 583.154296875 510 c 1
 472.294921875 490 l 1
 506.88671875 619.096679688 474.684570312 664 419.91796875 664 c 0
 365.15234375 664 312.34375 632 287.692382812 540 c 2
 185.872070312 160 l 2
 161.220703125 68 196.879882812 36 251.646484375 36 c 0
 306.412109375 36 370.198242188 108.967773438 397.26953125 210 c 1
 497.41015625 190 l 1
EndSplineSet
EndChar

StartChar: G
Encoding: 71 71 33
Width: 484
Flags: HW
LayerCount: 2
Fore
SplineSet
344.24609375 348 m 1
 539.74609375 348 l 1
 497.41015625 190 l 2
 455.610351562 34 329.780273438 -18 237.176757812 -18 c 0
 144.573242188 -18 46.6103515625 34 88.41015625 190 c 2
 174.154296875 510 l 2
 215.954101562 666 341.784179688 718 434.387695312 718 c 0
 526.991210938 718 624.954101562 666 583.154296875 510 c 1
 472.294921875 490 l 1
 506.88671875 619.096679688 474.684570312 664 419.91796875 664 c 0
 365.15234375 664 312.34375 632 287.692382812 540 c 2
 185.872070312 160 l 2
 161.220703125 68 196.879882812 36 251.646484375 36 c 0
 306.412109375 36 364.579101562 88 383.872070312 160 c 2
 425.671875 316 l 1
 325.671875 316 l 1
 344.24609375 348 l 1
EndSplineSet
EndChar

StartChar: Q
Encoding: 81 81 34
Width: 484
Flags: HW
LayerCount: 2
Fore
SplineSet
419.91796875 664 m 0
 365.15234375 664 312.34375 632 287.692382812 540 c 2
 185.872070312 160 l 2
 161.220703125 68 196.879882812 36 251.646484375 36 c 0
 306.412109375 36 364.579101562 88 383.872070312 160 c 2
 485.692382812 540 l 2
 510.34375 632 474.684570312 664 419.91796875 664 c 0
434.387695312 718 m 0
 526.991210938 718 624.954101562 666 583.154296875 510 c 2
 497.41015625 190 l 2
 458.749023438 45.712890625 348.606445312 -9.60546875 259.322265625 -17.0986328125 c 1
 247.840820312 -28.0791015625 238.748046875 -40.1259765625 235.432617188 -52.5 c 0
 227.5703125 -81.84375 245.412109375 -93.109375 289.46875 -93.109375 c 0
 339.916015625 -93.109375 373.368164062 -77 373.368164062 -77 c 1
 333.788085938 -165 l 1
 333.788085938 -165 296.125 -177.920898438 248.262695312 -177.920898438 c 0
 192.029296875 -177.920898438 128.189453125 -159.770507812 149.162109375 -81.5 c 0
 156.240234375 -55.0830078125 173.458007812 -31.6708984375 192.592773438 -12.5263671875 c 1
 114.10546875 3.267578125 54.212890625 62.375 88.41015625 190 c 2
 174.154296875 510 l 2
 215.954101562 666 341.784179688 718 434.387695312 718 c 0
EndSplineSet
EndChar

StartChar: S
Encoding: 83 83 35
Width: 484
Flags: HW
LayerCount: 2
Fore
SplineSet
179.512695312 530 m 0
 215.954101562 666 341.784179688 718 434.387695312 718 c 0
 526.991210938 718 624.954101562 666 583.154296875 510 c 1
 469.794921875 490 l 1
 504.38671875 619.096679688 473.30078125 664 419.91796875 664 c 0
 361.002929688 664 301.545898438 619.692382812 274.833984375 520 c 0
 251.471679688 432.810546875 285.821289062 386.26171875 341.060546875 371 c 0
 459.088867188 335 528.23046875 305.021484375 492.051757812 170 c 0
 455.610351562 34 329.780273438 -18 237.176757812 -18 c 0
 144.573242188 -18 46.6103515625 34 88.41015625 190 c 1
 201.76953125 210 l 1
 174.698242188 108.967773438 198.263671875 36 251.646484375 36 c 0
 310.561523438 36 370.018554688 80.3076171875 396.73046875 180 c 0
 415.051757812 248.373046875 396.412109375 316.9140625 336.096679688 333 c 0
 219.561523438 367.564453125 145.318359375 402.383789062 179.512695312 530 c 0
EndSplineSet
EndChar

StartChar: A
Encoding: 65 65 36
Width: 498
Flags: HW
LayerCount: 2
Fore
SplineSet
212.606445312 172 m 1
 133 0 l 1
 27.5 0 l 1
 367.564453125 700 l 1
 518.064453125 700 l 1
 470.5 0 l 1
 365 0 l 1
 381.766601562 172 l 1
 212.606445312 172 l 1
224.374023438 203 m 1
 384.463867188 203 l 1
 433.526367188 670 l 1
 224.374023438 203 l 1
EndSplineSet
EndChar

StartChar: V
Encoding: 86 86 37
Width: 498
Flags: HW
LayerCount: 2
Fore
SplineSet
294.359375 20 m 1
 620.064453125 700 l 1
 658.064453125 700 l 1
 323 0 l 1
 187.5 0 l 1
 215.064453125 700 l 1
 320.564453125 700 l 1
 294.359375 20 l 1
EndSplineSet
EndChar

StartChar: W
Encoding: 87 87 38
Width: 820
Flags: HW
LayerCount: 2
Fore
SplineSet
262.038085938 30 m 1
 547.564453125 700 l 1
 664.064453125 700 l 1
 644.038085938 30 l 1
 948.064453125 700 l 1
 980.064453125 700 l 1
 662 0 l 1
 554.5 0 l 1
 569.938476562 671.538085938 l 1
 288 0 l 1
 172.5 0 l 1
 215.064453125 700 l 1
 320.564453125 700 l 1
 262.038085938 30 l 1
EndSplineSet
EndChar

StartChar: L
Encoding: 76 76 39
Width: 438
Flags: HW
LayerCount: 2
Fore
SplineSet
179.125 97.5 m 1
 426.625 97.5 l 1
 400.5 0 l 1
 47.5 0 l 1
 235.064453125 700 l 1
 340.564453125 700 l 1
 179.125 97.5 l 1
EndSplineSet
EndChar

StartChar: D
Encoding: 68 68 40
Width: 484
Flags: HW
LayerCount: 2
Fore
SplineSet
167.469726562 54 m 1
 256.469726562 54 l 2
 311.235351562 54 369.40234375 106 388.6953125 178 c 2
 480.869140625 522 l 2
 505.520507812 614 469.861328125 646 415.094726562 646 c 2
 326.094726562 646 l 1
 167.469726562 54 l 1
47.5 0 m 1
 235.064453125 700 l 1
 429.564453125 700 l 2
 522.16796875 700 620.130859375 648 578.331054688 492 c 2
 502.233398438 208 l 2
 460.43359375 52 334.603515625 0 242 0 c 2
 47.5 0 l 1
EndSplineSet
EndChar

StartChar: I
Encoding: 73 73 41
Width: 198
Flags: HW
LayerCount: 2
Fore
SplineSet
150.5 0 m 1
 47.5 0 l 1
 235.064453125 700 l 1
 338.064453125 700 l 1
 150.5 0 l 1
EndSplineSet
EndChar

StartChar: B
Encoding: 66 66 42
Width: 484
Flags: HW
LayerCount: 2
Fore
SplineSet
177.517578125 91.5 m 1
 261.517578125 91.5 l 2
 329.274414062 91.5 375.921875 138.999023438 402.202148438 237.078125 c 0
 419.658203125 302.224609375 408.509765625 387 340.696289062 387 c 2
 256.696289062 387 l 1
 177.517578125 91.5 l 1
263.126953125 411 m 1
 312.126953125 411 l 2
 376.551757812 411 415.387695312 435.56640625 430.529296875 492.078125 c 0
 445.701171875 548.69921875 429.525390625 608.5 365.046875 608.5 c 2
 316.046875 608.5 l 1
 263.126953125 411 l 1
442.248046875 407.6484375 m 1
 502.196289062 387 536.583984375 336.19921875 511.879882812 244 c 2
 500.08984375 200 l 2
 458.290039062 44 334.603515625 0 242 0 c 2
 47.5 0 l 1
 235.064453125 700 l 1
 389.564453125 700 l 2
 521.211914062 700 569.997070312 635.813476562 541.837890625 530.719726562 c 0
 519.94140625 449 481.717773438 430 442.248046875 407.6484375 c 1
EndSplineSet
EndChar

StartChar: P
Encoding: 80 80 43
Width: 484
Flags: HW
LayerCount: 2
Fore
SplineSet
235.064453125 700 m 1
 429.564453125 700 l 2
 522.16796875 700 620.465820312 649.25 579.670898438 497 c 2
 567.880859375 453 l 2
 531.749023438 318.155273438 444.428710938 300 352.384765625 300 c 2
 233.384765625 300 l 1
 153 0 l 1
 47.5 0 l 1
 235.064453125 700 l 1
242.495117188 334 m 1
 326.495117188 334 l 2
 394.251953125 334 440.39453125 379.612304688 463.96484375 467.578125 c 0
 481.458984375 532.868164062 467.860351562 608.5 400.046875 608.5 c 2
 316.046875 608.5 l 1
 242.495117188 334 l 1
EndSplineSet
EndChar

StartChar: R
Encoding: 82 82 44
Width: 484
Flags: HW
LayerCount: 2
Fore
SplineSet
247.854492188 354 m 1
 336.854492188 354 l 2
 401.278320312 354 449.354492188 413.05078125 465.170898438 472.078125 c 0
 484.7734375 545.237304688 469.056640625 606.75 404.578125 606.75 c 2
 315.578125 606.75 l 1
 247.854492188 354 l 1
235.064453125 700 m 1
 429.564453125 700 l 2
 522.16796875 700 622.526367188 656.939453125 579.670898438 497 c 2
 575.919921875 483 l 2
 546.953125 374.897460938 469.130859375 334.505859375 403.250976562 334.505859375 c 1
 446.5 0 l 1
 326.5 0 l 1
 300.270507812 320 l 1
 238.744140625 320 l 1
 153 0 l 1
 47.5 0 l 1
 235.064453125 700 l 1
EndSplineSet
EndChar

StartChar: T
Encoding: 84 84 45
Width: 468
Flags: HW
LayerCount: 2
Fore
SplineSet
342.939453125 602.5 m 1
 198.939453125 602.5 l 1
 225.064453125 700 l 1
 618.064453125 700 l 1
 591.939453125 602.5 l 1
 445.939453125 602.5 l 1
 284.5 0 l 1
 181.5 0 l 1
 342.939453125 602.5 l 1
EndSplineSet
EndChar

StartChar: J
Encoding: 74 74 46
Width: 293
Flags: HW
LayerCount: 2
Fore
SplineSet
180.192382812 150 m 2
 327.564453125 700 l 1
 433.064453125 700 l 1
 299.08984375 200 l 2
 256.407226562 40.7080078125 160.918945312 -20 75.640625 -20 c 0
 47.640625 -20 34.9052734375 -13.9169921875 22.8564453125 -8 c 1
 33.8427734375 33 l 1
 33.8427734375 33 50.046875 26.599609375 71.55078125 26.599609375 c 0
 132.51953125 26.599609375 163.307617188 86.9853515625 180.192382812 150 c 2
EndSplineSet
EndChar

StartChar: E
Encoding: 69 69 47
Width: 438
Flags: HW
LayerCount: 2
Fore
SplineSet
256.428710938 386 m 1
 489.428710938 386 l 1
 477.102539062 340 l 1
 244.102539062 340 l 1
 179.057617188 97.25 l 1
 434.057617188 97.25 l 1
 408 0 l 1
 47.5 0 l 1
 235.064453125 700 l 1
 595.564453125 700 l 1
 569.439453125 602.5 l 1
 314.439453125 602.5 l 1
 256.428710938 386 l 1
EndSplineSet
EndChar

StartChar: F
Encoding: 70 70 48
Width: 438
Flags: HW
LayerCount: 2
Fore
SplineSet
314.439453125 602.5 m 1
 256.428710938 386 l 1
 489.428710938 386 l 1
 477.102539062 340 l 1
 244.102539062 340 l 1
 153 0 l 1
 47.5 0 l 1
 235.064453125 700 l 1
 595.564453125 700 l 1
 569.439453125 602.5 l 1
 314.439453125 602.5 l 1
EndSplineSet
EndChar

StartChar: Y
Encoding: 89 89 49
Width: 498
Flags: HW
LayerCount: 2
Fore
SplineSet
351.884765625 300 m 1
 610.064453125 700 l 1
 658.064453125 700 l 1
 364.291015625 253 l 1
 296.5 0 l 1
 199 0 l 1
 266.791015625 253 l 1
 215.064453125 700 l 1
 320.564453125 700 l 1
 351.884765625 300 l 1
EndSplineSet
EndChar

StartChar: K
Encoding: 75 75 50
Width: 482
Flags: HW
LayerCount: 2
Fore
SplineSet
153 0 m 1
 47.5 0 l 1
 235.064453125 700 l 1
 340.564453125 700 l 1
 238.983398438 320.895507812 l 1
 594.064453125 700 l 1
 642.064453125 700 l 1
 354.817382812 379.509765625 l 1
 444.5 0 l 1
 327.5 0 l 1
 257.29296875 303.387695312 l 1
 225.986328125 272.387695312 l 1
 153 0 l 1
EndSplineSet
EndChar

StartChar: X
Encoding: 88 88 51
Width: 514
Flags: HW
LayerCount: 2
Fore
SplineSet
486.5 0 m 1
 380 0 l 1
 321.272460938 290.25 l 1
 75.5 0 l 1
 27.5 0 l 1
 310.083007812 326.864257812 l 1
 215.064453125 700 l 1
 321.564453125 700 l 1
 388.034179688 416.25 l 1
 635.064453125 700 l 1
 674.064453125 700 l 1
 399.22265625 379.635742188 l 1
 486.5 0 l 1
EndSplineSet
EndChar

StartChar: Z
Encoding: 90 90 52
Width: 478
Flags: HW
LayerCount: 2
Fore
SplineSet
199.475585938 604.5 m 1
 225.064453125 700 l 1
 628.064453125 700 l 1
 601.939453125 602.5 l 1
 107.0390625 95.5 l 1
 466.088867188 95.5 l 1
 440.5 0 l 1
 37.5 0 l 1
 65.7685546875 105.5 l 1
 558.385742188 604.5 l 1
 199.475585938 604.5 l 1
EndSplineSet
EndChar

StartChar: period
Encoding: 46 46 53
Width: 198
Flags: HW
LayerCount: 2
Fore
SplineSet
151.75 0 m 1
 46.25 0 l 1
 74.65234375 106 l 1
 180.15234375 106 l 1
 151.75 0 l 1
EndSplineSet
EndChar

StartChar: comma
Encoding: 44 44 54
Width: 198
Flags: HW
LayerCount: 2
Fore
SplineSet
58.515625 -117.5 m 1
 29.544921875 -95 l 1
 103.474609375 0 l 1
 46.25 0 l 1
 74.65234375 106 l 1
 180.15234375 106 l 1
 151.75 0 l 1
 58.515625 -117.5 l 1
EndSplineSet
EndChar

StartChar: question
Encoding: 63 63 55
Width: 484
Flags: HW
LayerCount: 2
Fore
SplineSet
282.01171875 0 m 1
 176.51171875 0 l 1
 204.9140625 106 l 1
 310.4140625 106 l 1
 282.01171875 0 l 1
354.939453125 297.969726562 m 1
 324.9375 186 l 1
 228.4375 186 l 1
 264.342773438 320 l 1
 339.377929688 320 431.705078125 375.834960938 464.70703125 499 c 0
 495.12890625 612.538085938 474.745117188 663 419.650390625 663 c 0
 364.5546875 663 317.926757812 615.516601562 281.34765625 479 c 1
 181.20703125 499 l 1
 223.006835938 655 339.004882812 707 431.440429688 707 c 0
 523.875976562 707 612.006835938 655 570.20703125 499 c 0
 538.05078125 378.994140625 441.787109375 316 354.939453125 297.969726562 c 1
EndSplineSet
EndChar

StartChar: colon
Encoding: 58 58 56
Width: 198
Flags: HW
LayerCount: 2
Fore
SplineSet
256.048828125 389.25 m 1
 150.548828125 389.25 l 1
 178.952148438 495.25 l 1
 284.452148438 495.25 l 1
 256.048828125 389.25 l 1
178.27734375 99 m 1
 72.77734375 99 l 1
 101.1796875 205 l 1
 206.6796875 205 l 1
 178.27734375 99 l 1
EndSplineSet
EndChar

StartChar: hyphen
Encoding: 45 45 57
Width: 347
Flags: HW
LayerCount: 2
Fore
SplineSet
120.518554688 300.5 m 1
 387.518554688 300.5 l 1
 365.279296875 217.5 l 1
 98.279296875 217.5 l 1
 120.518554688 300.5 l 1
EndSplineSet
EndChar
